<svg xmlns="http://www.w3.org/2000/svg" width="1024" height="1024" viewBox="0 0 1024 1024" version="1.1"><path d="M 317.500 244.447 C 314.200 245.135, 308.971 246.676, 305.881 247.872 C 297.127 251.258, 282.246 262.272, 276.797 269.397 C 273.942 273.131, 274.192 272.996, 279.580 267.904 C 285.931 261.901, 286.183 261.689, 293 256.632 C 298.872 252.275, 303.920 249.753, 312.500 246.888 C 319.451 244.567, 319.930 244.546, 381 243.993 L 442.500 243.436 383 243.316 C 338.834 243.227, 321.954 243.518, 317.500 244.447 M 463.750 243.748 C 472.688 243.914, 487.313 243.914, 496.250 243.748 C 505.188 243.582, 497.875 243.447, 480 243.447 C 462.125 243.447, 454.813 243.582, 463.750 243.748 M 568.750 243.740 C 572.188 243.936, 577.813 243.936, 581.250 243.740 C 584.688 243.545, 581.875 243.385, 575 243.385 C 568.125 243.385, 565.313 243.545, 568.750 243.740 M 566.500 305.116 C 551.858 317.411, 536.064 331.964, 514 353.492 C 478.394 388.233, 456.539 405.253, 422.342 424.874 C 410.020 431.944, 402.702 435.432, 380.500 444.820 C 371.951 448.435, 377.330 447.220, 393.750 441.827 C 427.718 430.671, 462.500 409.565, 493.500 381.298 C 508.576 367.551, 567.587 307.279, 567.250 305.971 C 567.112 305.437, 567.623 305, 568.385 305 C 569.147 305, 570.507 303.875, 571.408 302.500 C 572.309 301.125, 572.923 300.018, 572.773 300.039 C 572.623 300.061, 569.800 302.346, 566.500 305.116 M 502.223 311.557 C 499.755 313.285, 499.181 318.114, 501.250 319.733 C 505.450 323.019, 511 320.894, 511 316 C 511 313.228, 508.041 310, 505.500 310 C 504.920 310, 503.445 310.701, 502.223 311.557 M 489.557 339.937 C 487.728 341.958, 488.171 344, 490.437 344 C 492.406 344, 494.121 341.478, 493.410 339.627 C 492.595 337.502, 491.695 337.574, 489.557 339.937 M 583.300 339.281 C 582.860 339.985, 578.225 344.126, 573 348.483 C 567.775 352.840, 559.675 359.833, 555 364.022 C 493.350 419.268, 461.731 441.498, 418.500 459.987 C 412.450 462.574, 405.025 465.491, 402 466.468 C 395.846 468.457, 392.667 470.564, 397.500 469.450 C 406.159 467.456, 426.417 460.238, 438.168 454.962 C 478.976 436.637, 510.228 413.243, 562.345 362.007 C 580.824 343.840, 586.234 338, 584.585 338 C 584.318 338, 583.740 338.576, 583.300 339.281 M 461.150 360.854 C 445.844 376.500, 435.669 384.969, 417.499 397.189 C 412.363 400.643, 387.805 414, 386.590 414 C 386.082 414, 385.918 414.251, 386.224 414.558 C 386.997 415.330, 409.976 404.274, 418.474 399.041 C 435.249 388.713, 452.856 373.757, 465.603 359.008 C 472.490 351.039, 475.797 346.758, 474.800 347.104 C 474.635 347.161, 468.493 353.348, 461.150 360.854 M 710.235 359.750 C 708.008 362.973, 696.006 383.430, 690.435 393.500 C 687.041 399.636, 672.335 423.970, 671.512 424.814 C 671.344 424.986, 668.292 423.132, 664.730 420.694 C 656.759 415.237, 650.306 413.556, 640.028 414.261 C 631.095 414.873, 625.811 417.173, 621.155 422.476 C 616.065 428.273, 617.343 435.582, 624.555 441.915 C 634.987 451.073, 651.924 453.926, 663.437 448.463 C 668.244 446.182, 670.048 443.873, 677.478 430.500 C 681.145 423.900, 684.752 417.876, 685.495 417.114 C 686.643 415.933, 688.229 416.059, 696.172 417.961 C 719.508 423.548, 740.436 434.713, 758.571 451.250 C 761.436 453.863, 764.055 456, 764.390 456 C 764.726 456, 764.983 452.962, 764.962 449.250 C 764.919 441.600, 766.715 443.644, 748.631 430.664 C 735.370 421.147, 711.993 410.796, 696.716 407.678 L 690.932 406.497 695.214 399.749 C 700.019 392.174, 700.586 391.973, 710 394.500 C 723.419 398.102, 734.149 395.548, 738.095 387.814 C 743.436 377.345, 735.467 364.908, 719.712 359.125 C 712.439 356.454, 712.517 356.449, 710.235 359.750 M 709.535 375.104 C 707.591 376.811, 706 378.774, 706 379.467 C 706 380.160, 708.813 382.009, 712.250 383.577 C 719.889 387.060, 729.524 387.645, 731.377 384.739 C 733.021 382.161, 729.422 375.961, 725 373.752 C 719.377 370.942, 713.710 371.438, 709.535 375.104 M 315.054 439.096 C 304.250 440.385, 296.496 442.593, 288.234 446.731 C 279.822 450.945, 267.012 460.873, 262.150 466.947 C 260.307 469.249, 258.587 470.920, 258.327 470.661 C 257.594 469.928, 249.534 485.798, 247.235 492.500 C 240.538 512.028, 241.176 537.037, 248.850 555.741 C 251.611 562.471, 257.973 574.252, 257.991 572.668 C 257.996 572.211, 260.039 574.236, 262.530 577.168 C 280.577 598.409, 304.751 609.109, 331.480 607.689 C 353.467 606.520, 371.174 598.593, 386.883 582.883 C 397.901 571.866, 403.804 561.734, 408.204 546.289 C 410.049 539.812, 410.416 536.058, 410.380 524 C 410.343 511.209, 410.022 508.464, 407.662 500.712 C 401.087 479.116, 390.737 465.075, 372.253 452.679 C 355.740 441.604, 335.107 436.704, 315.054 439.096 M 443.500 471.879 C 419.460 478.835, 409.923 504.169, 423.579 524.800 C 429.620 533.927, 440.155 539.334, 463 545.032 C 473.246 547.588, 476 549.758, 476 555.274 C 476 561.832, 467.927 567.973, 459.279 567.994 C 455.738 568.003, 441.099 562.304, 437.127 559.371 C 435.132 557.898, 432.037 555.323, 430.249 553.649 L 426.998 550.605 418.249 559.950 C 413.437 565.089, 409.371 569.614, 409.214 570.006 C 408.582 571.575, 421.314 582.004, 427.334 584.848 C 439.929 590.799, 456.299 593.601, 468.804 591.947 C 476.868 590.880, 488.125 586.140, 493.011 581.754 C 503.737 572.126, 507.717 556.038, 502.915 541.718 C 500.139 533.441, 497.088 529.663, 488.904 524.369 C 483.296 520.741, 479.686 519.357, 468.785 516.650 C 452.879 512.702, 448.205 510.663, 447.362 507.307 C 446.365 503.336, 448.420 500.387, 453.550 498.428 C 457.623 496.872, 459.114 496.785, 464.834 497.764 C 468.622 498.413, 474.525 500.488, 478.713 502.642 L 486.001 506.392 489.750 502.954 C 491.813 501.063, 496.173 496.845, 499.439 493.580 L 505.378 487.644 500.680 483.510 C 494.798 478.334, 485.159 473.485, 476.867 471.531 C 468.155 469.477, 451.189 469.654, 443.500 471.879 M 503.527 476.250 C 503.905 478.038, 507.821 488.950, 512.229 500.500 C 519.811 520.363, 540.405 575.535, 543.687 584.775 L 545.205 589.050 560.709 588.775 L 576.214 588.500 581.947 574 C 592.116 548.279, 599.633 528.977, 608.038 507 C 612.560 495.175, 617.326 483.082, 618.630 480.126 C 619.933 477.170, 621 474.357, 621 473.876 C 621 473.394, 614.101 473, 605.668 473 L 590.336 473 585.264 485.750 C 579.821 499.436, 570.106 525.716, 564.932 540.750 C 563.182 545.837, 561.442 550, 561.066 550 C 560.689 550, 559.646 547.862, 558.748 545.250 C 557.849 542.638, 551.966 525.650, 545.675 507.500 L 534.236 474.500 528.368 473.859 C 525.141 473.506, 518.077 473.168, 512.671 473.109 L 502.841 473 503.527 476.250 M 623.632 530.568 C 623.884 562.389, 624.183 588.491, 624.295 588.573 C 624.408 588.655, 631.138 589.011, 639.250 589.365 L 654 590.007 654 532.004 L 654 474 647.654 474 C 644.163 474, 637.227 473.710, 632.240 473.356 L 623.174 472.713 623.632 530.568 M 675.667 473.667 C 674.824 474.509, 674.817 480.536, 675.647 490.349 L 676.293 498 698.897 498.024 C 722.545 498.049, 727.663 498.628, 731.923 501.765 C 734.625 503.754, 738.829 510.504, 737.928 511.406 C 737.639 511.694, 734.500 510.742, 730.952 509.290 C 725.631 507.113, 722.477 506.573, 712.965 506.210 C 700.132 505.719, 693.200 506.789, 685.214 510.491 C 678.310 513.691, 670.120 521.983, 666.439 529.500 C 663.659 535.175, 663.501 536.177, 663.520 548 C 663.537 558.683, 663.874 561.335, 665.841 566.247 C 671.959 581.530, 689.216 592, 708.287 592 C 717.391 592, 726.571 589.919, 732.876 586.425 C 735.283 585.091, 737.420 584, 737.626 584 C 737.832 584, 738 585.089, 738 586.420 C 738 588.654, 738.483 588.891, 744.250 589.487 C 747.688 589.843, 754.325 589.991, 759 589.817 L 767.500 589.500 767.500 550.500 C 767.500 521.869, 767.138 509.538, 766.138 504.122 C 765.389 500.064, 764.461 497.254, 764.076 497.877 C 763.647 498.571, 762.767 497.747, 761.807 495.755 C 756.792 485.346, 742.724 476.243, 728.308 474.079 C 720.540 472.913, 676.763 472.570, 675.667 473.667 M 313.487 479.799 C 298.808 484.875, 288.414 495.456, 283.964 509.855 C 276.213 534.937, 291.153 562.116, 315.694 567.575 C 327.366 570.172, 337.812 569.272, 346 564.965 C 354.428 560.531, 363.811 551.193, 367.569 543.500 C 370.334 537.840, 370.500 536.792, 370.500 525 C 370.500 513.088, 370.354 512.194, 367.401 506 C 361.011 492.596, 351.464 483.804, 339.145 479.975 C 331.203 477.507, 320.330 477.432, 313.487 479.799 M 317 523 C 317 546.335, 317.278 552.999, 318.250 552.997 C 319.495 552.994, 349.333 530.500, 356.485 524.173 C 358.553 522.343, 359.853 520.489, 359.373 520.053 C 353.403 514.631, 320.714 493, 318.490 493 C 317.203 493, 317 497.085, 317 523 M 707.326 530.045 C 698.775 531.735, 693.913 535.897, 691.942 543.214 C 689.894 550.821, 693.585 559.500, 700.621 563.624 C 706.621 567.140, 717.043 567.437, 724 564.288 C 735.635 559.023, 740.505 546.544, 734.226 538.087 C 729.830 532.165, 716.603 528.211, 707.326 530.045 M 653.667 617.667 C 653.300 618.033, 653 631.909, 653 648.501 L 653 678.669 645.206 678.218 C 635.720 677.669, 628.924 680.127, 623.581 686.042 C 617.704 692.547, 617.764 703.309, 623.703 707.981 C 631.670 714.248, 647.594 712.013, 654.658 703.637 C 659.822 697.513, 660 696.225, 660 664.953 L 660 635.841 663.250 636.545 C 668.160 637.608, 671.587 640.510, 673.459 645.190 C 675.590 650.514, 674.933 654.424, 670.434 663.198 C 668.065 667.820, 667.007 671.230, 667.024 674.198 L 667.047 678.500 669.354 672.892 C 670.623 669.808, 672.584 665.983, 673.712 664.392 C 676.365 660.652, 679 652.819, 679 648.675 C 679 643.842, 676.243 634.151, 673.954 630.935 C 672.850 629.385, 669.586 626.766, 666.701 625.115 C 663.816 623.464, 660.375 620.963, 659.054 619.557 C 656.659 617.008, 654.931 616.402, 653.667 617.667" stroke="none" fill="#f3f5f9" fill-rule="evenodd"/><path d="M 385 242.988 L 442.500 243.500 381 244.022 C 319.851 244.540, 319.460 244.557, 312.500 246.884 C 308.650 248.172, 303.830 250.075, 301.790 251.113 C 297.499 253.296, 296.603 253.452, 297.595 251.845 C 298.041 251.124, 297.869 250.963, 297.138 251.415 C 296.494 251.813, 296.201 252.517, 296.488 252.980 C 297.064 253.913, 289.220 260.031, 287.553 259.948 C 286.974 259.919, 287.601 259.131, 288.946 258.198 C 292.412 255.792, 295.787 252.708, 294 253.579 C 291.041 255.021, 283.986 261.168, 284.442 261.906 C 284.698 262.321, 282.356 265.099, 279.237 268.080 C 276.118 271.061, 274.448 272.375, 275.526 271 L 277.486 268.500 274.713 270.952 C 273.189 272.301, 272.138 273.916, 272.378 274.543 C 272.618 275.169, 272.364 276.316, 271.813 277.091 C 271.028 278.195, 270.938 278.110, 271.394 276.698 C 272.124 274.443, 270.390 275.402, 268.982 278.033 C 268.124 279.637, 268.247 279.871, 269.727 279.447 C 270.702 279.167, 270.452 279.487, 269.172 280.157 C 266.342 281.638, 261.623 290.575, 262.485 292.821 C 262.826 293.711, 262.757 294.091, 262.332 293.665 C 261.906 293.239, 260.650 295.278, 259.540 298.196 C 257.584 303.336, 257.513 306.053, 257.228 385.942 C 257.066 431.285, 257.184 469.036, 257.490 469.834 C 257.885 470.864, 259.848 469.415, 264.273 464.825 C 279.694 448.831, 294.464 441.503, 316.177 439.076 C 336.611 436.792, 356.540 441.794, 373.507 453.464 C 390.995 465.493, 401.265 479.699, 407.662 500.712 C 410.022 508.464, 410.343 511.209, 410.380 524 C 410.416 536.058, 410.049 539.812, 408.204 546.289 C 403.804 561.734, 397.901 571.866, 386.883 582.883 C 371.174 598.593, 353.467 606.520, 331.480 607.689 C 304.751 609.109, 280.577 598.409, 262.530 577.168 C 259.322 573.393, 257.837 572.261, 257.442 573.291 C 257.135 574.090, 257.057 605.064, 257.268 642.122 C 257.698 717.393, 257.549 715.667, 264.954 731.500 C 274.860 752.680, 293.919 768.244, 318.500 775.227 L 326.500 777.500 508 777.468 C 652.011 777.443, 691.256 777.167, 698 776.133 C 722.613 772.360, 744.857 756.020, 756.041 733.500 C 764.064 717.346, 764.071 717.285, 765.053 653 C 765.529 621.925, 766.071 595.038, 766.258 593.250 L 766.598 590 756.939 590 C 751.626 590, 745.191 589.714, 742.640 589.364 C 738.608 588.811, 738 588.418, 738 586.364 C 738 585.064, 737.832 584, 737.626 584 C 737.420 584, 735.283 585.091, 732.876 586.425 C 726.571 589.919, 717.391 592, 708.287 592 C 689.216 592, 671.959 581.530, 665.841 566.247 C 663.874 561.335, 663.537 558.683, 663.520 548 C 663.501 536.177, 663.659 535.175, 666.439 529.500 C 670.120 521.983, 678.310 513.691, 685.214 510.491 C 693.200 506.789, 700.132 505.719, 712.965 506.210 C 722.477 506.573, 725.631 507.113, 730.952 509.290 C 734.500 510.742, 737.639 511.694, 737.928 511.406 C 738.829 510.504, 734.625 503.754, 731.923 501.765 C 727.661 498.628, 722.544 498.049, 698.846 498.024 L 676.192 498 675.489 487.677 C 674.414 471.912, 671.924 473.549, 697.513 473.201 C 710.049 473.030, 722.939 473.381, 727.500 474.017 C 742.611 476.123, 756.627 485.005, 761.807 495.755 C 762.898 498.019, 763.618 498.628, 764.172 497.755 C 764.611 497.065, 764.976 487.622, 764.985 476.771 L 765 457.041 760.670 453.050 C 741.532 435.410, 721.247 424.262, 697.504 418.339 C 688.393 416.066, 686.688 415.889, 685.514 417.095 C 684.761 417.868, 681.145 423.900, 677.478 430.500 C 670.048 443.873, 668.244 446.182, 663.437 448.463 C 645.780 456.842, 618 444.983, 618 429.067 C 618 425.325, 622.778 419.664, 628.323 416.835 C 633.500 414.194, 645.814 413.276, 652.987 414.997 C 655.973 415.713, 661.059 418.181, 664.730 420.694 C 668.292 423.132, 671.344 424.986, 671.512 424.814 C 672.335 423.970, 687.041 399.636, 690.435 393.500 C 699.325 377.432, 711.256 357.839, 712.425 357.390 C 714.570 356.567, 725.251 361.064, 730.596 365.041 C 742.126 373.619, 742.859 388.460, 732.026 393.987 C 727.224 396.436, 718.014 396.651, 710 394.500 C 700.586 391.973, 700.019 392.174, 695.214 399.749 L 690.932 406.497 696.716 407.678 C 716.095 411.633, 742.529 424.544, 758.482 437.846 C 761.222 440.131, 763.809 442, 764.232 442 C 765.310 442, 765.148 338.028, 764.048 323.819 C 763.550 317.394, 762.185 308.722, 761.014 304.549 C 757.830 293.203, 749.965 277.072, 745.619 272.977 C 743.590 271.065, 740.748 267.796, 739.304 265.714 C 731.338 254.228, 705.954 242.171, 691.845 243.170 C 689.284 243.352, 687.397 243.162, 687.653 242.750 C 687.909 242.337, 606.979 242.107, 507.809 242.238 C 407.462 242.370, 353 242.703, 385 242.988 M 463.750 243.748 C 472.688 243.914, 487.313 243.914, 496.250 243.748 C 505.188 243.582, 497.875 243.447, 480 243.447 C 462.125 243.447, 454.813 243.582, 463.750 243.748 M 568.750 243.740 C 572.188 243.936, 577.813 243.936, 581.250 243.740 C 584.688 243.545, 581.875 243.385, 575 243.385 C 568.125 243.385, 565.313 243.545, 568.750 243.740 M 566.500 305.116 C 551.858 317.411, 536.064 331.964, 514 353.492 C 478.394 388.233, 456.539 405.253, 422.342 424.874 C 410.020 431.944, 402.702 435.432, 380.500 444.820 C 371.951 448.435, 377.330 447.220, 393.750 441.827 C 427.718 430.671, 462.500 409.565, 493.500 381.298 C 508.576 367.551, 567.587 307.279, 567.250 305.971 C 567.112 305.437, 567.623 305, 568.385 305 C 569.147 305, 570.507 303.875, 571.408 302.500 C 572.309 301.125, 572.923 300.018, 572.773 300.039 C 572.623 300.061, 569.800 302.346, 566.500 305.116 M 502.223 311.557 C 499.755 313.285, 499.181 318.114, 501.250 319.733 C 505.450 323.019, 511 320.894, 511 316 C 511 313.228, 508.041 310, 505.500 310 C 504.920 310, 503.445 310.701, 502.223 311.557 M 489.557 339.937 C 487.728 341.958, 488.171 344, 490.437 344 C 492.406 344, 494.121 341.478, 493.410 339.627 C 492.595 337.502, 491.695 337.574, 489.557 339.937 M 583.300 339.281 C 582.860 339.985, 578.225 344.126, 573 348.483 C 567.775 352.840, 559.675 359.833, 555 364.022 C 493.350 419.268, 461.731 441.498, 418.500 459.987 C 412.450 462.574, 405.025 465.491, 402 466.468 C 395.846 468.457, 392.667 470.564, 397.500 469.450 C 406.159 467.456, 426.417 460.238, 438.168 454.962 C 478.976 436.637, 510.228 413.243, 562.345 362.007 C 580.824 343.840, 586.234 338, 584.585 338 C 584.318 338, 583.740 338.576, 583.300 339.281 M 461.150 360.854 C 445.844 376.500, 435.669 384.969, 417.499 397.189 C 412.363 400.643, 387.805 414, 386.590 414 C 386.082 414, 385.918 414.251, 386.224 414.558 C 386.997 415.330, 409.976 404.274, 418.474 399.041 C 435.249 388.713, 452.856 373.757, 465.603 359.008 C 472.490 351.039, 475.797 346.758, 474.800 347.104 C 474.635 347.161, 468.493 353.348, 461.150 360.854 M 709.535 375.104 C 707.591 376.811, 706 378.774, 706 379.467 C 706 380.160, 708.813 382.009, 712.250 383.577 C 719.889 387.060, 729.524 387.645, 731.377 384.739 C 733.021 382.161, 729.422 375.961, 725 373.752 C 719.377 370.942, 713.710 371.438, 709.535 375.104 M 443.500 471.879 C 419.460 478.835, 409.923 504.169, 423.579 524.800 C 429.620 533.927, 440.155 539.334, 463 545.032 C 473.246 547.588, 476 549.758, 476 555.274 C 476 561.832, 467.927 567.973, 459.279 567.994 C 455.738 568.003, 441.099 562.304, 437.127 559.371 C 435.132 557.898, 432.037 555.323, 430.249 553.649 L 426.998 550.605 418.249 559.950 C 413.437 565.089, 409.371 569.614, 409.214 570.006 C 408.582 571.575, 421.314 582.004, 427.334 584.848 C 439.929 590.799, 456.299 593.601, 468.804 591.947 C 476.868 590.880, 488.125 586.140, 493.011 581.754 C 503.737 572.126, 507.717 556.038, 502.915 541.718 C 500.139 533.441, 497.088 529.663, 488.904 524.369 C 483.296 520.741, 479.686 519.357, 468.785 516.650 C 452.879 512.702, 448.205 510.663, 447.362 507.307 C 446.365 503.336, 448.420 500.387, 453.550 498.428 C 457.623 496.872, 459.114 496.785, 464.834 497.764 C 468.622 498.413, 474.525 500.488, 478.713 502.642 L 486.001 506.392 489.750 502.954 C 491.813 501.063, 496.173 496.845, 499.439 493.580 L 505.378 487.644 500.680 483.510 C 494.798 478.334, 485.159 473.485, 476.867 471.531 C 468.155 469.477, 451.189 469.654, 443.500 471.879 M 503.527 476.250 C 503.905 478.038, 507.821 488.950, 512.229 500.500 C 519.811 520.363, 540.405 575.535, 543.687 584.775 L 545.205 589.050 560.709 588.775 L 576.214 588.500 581.947 574 C 592.116 548.279, 599.633 528.977, 608.038 507 C 612.560 495.175, 617.326 483.082, 618.630 480.126 C 619.933 477.170, 621 474.357, 621 473.876 C 621 473.394, 614.101 473, 605.668 473 L 590.336 473 585.264 485.750 C 579.821 499.436, 570.106 525.716, 564.932 540.750 C 563.182 545.837, 561.442 550, 561.066 550 C 560.689 550, 559.646 547.862, 558.748 545.250 C 557.849 542.638, 551.966 525.650, 545.675 507.500 L 534.236 474.500 528.368 473.859 C 525.141 473.506, 518.077 473.168, 512.671 473.109 L 502.841 473 503.527 476.250 M 623.632 530.568 C 623.884 562.389, 624.183 588.491, 624.295 588.573 C 624.408 588.655, 631.138 589.011, 639.250 589.365 L 654 590.007 654 532.004 L 654 474 647.654 474 C 644.163 474, 637.227 473.710, 632.240 473.356 L 623.174 472.713 623.632 530.568 M 313.487 479.799 C 298.808 484.875, 288.414 495.456, 283.964 509.855 C 276.213 534.937, 291.153 562.116, 315.694 567.575 C 327.366 570.172, 337.812 569.272, 346 564.965 C 354.428 560.531, 363.811 551.193, 367.569 543.500 C 370.334 537.840, 370.500 536.792, 370.500 525 C 370.500 513.088, 370.354 512.194, 367.401 506 C 361.011 492.596, 351.464 483.804, 339.145 479.975 C 331.203 477.507, 320.330 477.432, 313.487 479.799 M 317 523 C 317 546.335, 317.278 552.999, 318.250 552.997 C 319.495 552.994, 349.333 530.500, 356.485 524.173 C 358.553 522.343, 359.853 520.489, 359.373 520.053 C 353.403 514.631, 320.714 493, 318.490 493 C 317.203 493, 317 497.085, 317 523 M 707.326 530.045 C 698.775 531.735, 693.913 535.897, 691.942 543.214 C 689.894 550.821, 693.585 559.500, 700.621 563.624 C 706.621 567.140, 717.043 567.437, 724 564.288 C 735.635 559.023, 740.505 546.544, 734.226 538.087 C 729.830 532.165, 716.603 528.211, 707.326 530.045 M 653.667 617.667 C 653.300 618.033, 653 631.909, 653 648.501 L 653 678.669 645.206 678.218 C 635.720 677.669, 628.924 680.127, 623.581 686.042 C 617.704 692.547, 617.764 703.309, 623.703 707.981 C 631.670 714.248, 647.594 712.013, 654.658 703.637 C 659.822 697.513, 660 696.225, 660 664.953 L 660 635.841 663.250 636.545 C 668.160 637.608, 671.587 640.510, 673.459 645.190 C 675.590 650.514, 674.933 654.424, 670.434 663.198 C 668.065 667.820, 667.007 671.230, 667.024 674.198 L 667.047 678.500 669.354 672.892 C 670.623 669.808, 672.584 665.983, 673.712 664.392 C 676.365 660.652, 679 652.819, 679 648.675 C 679 643.842, 676.243 634.151, 673.954 630.935 C 672.850 629.385, 669.586 626.766, 666.701 625.115 C 663.816 623.464, 660.375 620.963, 659.054 619.557 C 656.659 617.008, 654.931 616.402, 653.667 617.667" stroke="none" fill="#2c49b5" fill-rule="evenodd"/></svg>